<?xml version="1.0" standalone="no"?>
<!DOCTYPE svg PUBLIC "-//W3C//DTD SVG 20010904//EN"
 "http://www.w3.org/TR/2001/REC-SVG-20010904/DTD/svg10.dtd">
<svg version="1.0" xmlns="http://www.w3.org/2000/svg"
 width="500.000000pt" height="500.000000pt" viewBox="0 0 500.000000 500.000000"
 preserveAspectRatio="xMidYMid meet">

<g transform="translate(0.000000,500.000000) scale(0.100000,-0.100000)"
fill="#000000" stroke="none">
<path d="M4717 338 c-2 -7 -5 -16 -6 -20 0 -5 -10 -17 -21 -28 -20 -20 -20
-21 -3 -44 13 -17 19 -20 21 -10 3 11 8 11 23 3 15 -7 24 -7 34 1 14 12 14 64
-1 66 -24 2 -42 17 -37 30 3 8 3 14 0 14 -3 0 -7 -6 -10 -12z m43 -41 c3 1 6
-10 5 -25 0 -21 -5 -26 -20 -24 -11 2 -28 4 -38 5 -9 1 -17 5 -17 10 0 4 0 12
0 17 0 6 12 10 26 10 14 0 23 -4 19 -10 -3 -5 -12 -7 -19 -4 -8 3 -17 1 -20
-5 -4 -5 2 -9 11 -9 10 0 27 -3 38 -7 14 -5 16 -4 7 2 -7 6 -12 15 -10 21 2 6
-6 18 -17 27 -19 15 -19 16 5 3 14 -7 27 -12 30 -11z"/>
<path d="M4723 215 c0 -8 4 -12 9 -9 5 3 6 10 3 15 -9 13 -12 11 -12 -6z"/>
</g>
</svg>
