<?xml version="1.0" encoding="UTF-8"?>
<svg version="1.1" xmlns="http://www.w3.org/2000/svg" viewBox="0 0 500 150" preserveAspectRatio="xMinYMid meet">
<g transform="translate(-40, -165)">
<path d="M0 0 C4.1117256 -0.02465746 8.22342278 -0.04283959 12.33520508 -0.05493164 C13.73495228 -0.0599708 15.1346942 -0.06680216 16.53442383 -0.07543945 C18.54245777 -0.0875232 20.55052957 -0.09269807 22.55859375 -0.09765625 C24.37315063 -0.10551147 24.37315063 -0.10551147 26.22436523 -0.11352539 C29 0 29 0 30 1 C30.08767112 3.07262076 30.10695873 5.14820294 30.09765625 7.22265625 C30.09282227 9.11274414 30.09282227 9.11274414 30.08789062 11.04101562 C30.07953403 12.38151109 30.07106907 13.72200588 30.0625 15.0625 C30.0574866 16.40689942 30.05292342 17.7513006 30.04882812 19.09570312 C30.03699488 22.39717941 30.02050971 25.69856803 30 29 C28.68 29.66 27.36 30.32 26 31 C26 31.66 26 32.32 26 33 C20.62694301 33.35233161 20.62694301 33.35233161 18 33 C16 31 16 31 15 29 C14.030625 29.78375 13.06125 30.5675 12.0625 31.375 C11.24458984 32.03628906 11.24458984 32.03628906 10.41015625 32.7109375 C8.86733563 33.9666391 8.86733563 33.9666391 8 36 C7.34 36 6.68 36 6 36 C6 36.66 6 37.32 6 38 C4.02 38.495 4.02 38.495 2 39 C2 39.99 2 40.98 2 42 C1.34 42 0.68 42 0 42 C0 42.66 0 43.32 0 44 C-1.093125 44.4125 -2.18625 44.825 -3.3125 45.25 C-6.55719525 46.61722038 -8.05024489 48.02405799 -10 51 C-10.66 51 -11.32 51 -12 51 C-12 51.66 -12 52.32 -12 53 C-13.39208454 54.15441157 -14.78862943 55.30386247 -16.20703125 56.42578125 C-18.94258771 58.82758791 -21.17913389 61.61691764 -23.484375 64.42578125 C-23.98453125 64.94527344 -24.4846875 65.46476562 -25 66 C-25.66 66 -26.32 66 -27 66 C-27.226875 66.61875 -27.45375 67.2375 -27.6875 67.875 C-29.40053356 70.64848291 -30.99919547 70.85683637 -34 72 C-34.86431641 73.01126953 -34.86431641 73.01126953 -35.74609375 74.04296875 C-38.80030372 76.6948911 -40.70415743 76.44185827 -44.6875 76.3125 C-45.84636719 76.28800781 -47.00523438 76.26351562 -48.19921875 76.23828125 C-51 76 -51 76 -52 75 C-53.5321586 64.10113983 -53.5321586 64.10113983 -50.390625 59.79296875 C-48.32915636 58.07636987 -46.18851793 56.54917562 -44 55 C-42.32932867 53.00334402 -40.66247014 51.00348966 -39 49 C-33.23828887 43.15807943 -33.23828887 43.15807943 -29.0625 42.625 C-28.0415625 42.810625 -28.0415625 42.810625 -27 43 C-26.61823608 42.12819092 -26.61823608 42.12819092 -26.22875977 41.23876953 C-24.86941324 38.76207419 -23.36088903 37.14865555 -21.33984375 35.1796875 C-20.62892578 34.47972656 -19.91800781 33.77976563 -19.18554688 33.05859375 C-18.44369141 32.33800781 -17.70183594 31.61742187 -16.9375 30.875 C-15.46526807 29.43712439 -13.99510844 27.99712292 -12.52734375 26.5546875 C-11.87499756 25.92030762 -11.22265137 25.28592773 -10.55053711 24.63232422 C-8.91114 23.06540833 -8.91114 23.06540833 -8 21 C-7.34 21 -6.68 21 -6 21 C-5.505 19.515 -5.505 19.515 -5 18 C-1.9375 16.8125 -1.9375 16.8125 1 16 C0.505 14.02 0.505 14.02 0 12 C-0.99 12 -1.98 12 -3 12 C-3 9.36 -3 6.72 -3 4 C-2.34 4 -1.68 4 -1 4 C-0.67 2.68 -0.34 1.36 0 0 Z " fill="#F0F0F0" transform="translate(103,186)"/>
<path d="M0 0 C3.12498063 -0.02895976 6.2499269 -0.04678483 9.375 -0.0625 C10.70917969 -0.07506836 10.70917969 -0.07506836 12.0703125 -0.08789062 C13.34648438 -0.09272461 13.34648438 -0.09272461 14.6484375 -0.09765625 C15.43395996 -0.10289307 16.21948242 -0.10812988 17.02880859 -0.11352539 C19 0 19 0 21 1 C21 25.75 21 50.5 21 76 C18.72108967 77.13945516 17.43217896 77.12894214 14.90234375 77.1328125 C14.10119141 77.13410156 13.30003906 77.13539063 12.47460938 77.13671875 C11.21874023 77.13091797 11.21874023 77.13091797 9.9375 77.125 C9.09638672 77.12886719 8.25527344 77.13273437 7.38867188 77.13671875 C1.12662682 77.12662682 1.12662682 77.12662682 0 76 C-0.09494733 73.62699131 -0.12559319 71.28321297 -0.11352539 68.90991211 C-0.11367142 68.16849472 -0.11381744 67.42707733 -0.1139679 66.66319275 C-0.11326865 64.20121379 -0.10547574 61.73930957 -0.09765625 59.27734375 C-0.09579211 57.57483461 -0.09436819 55.87232493 -0.09336853 54.16981506 C-0.08954302 49.68006927 -0.07971247 45.19035562 -0.06866455 40.70062256 C-0.05845113 36.12268509 -0.05387106 31.54474244 -0.04882812 26.96679688 C-0.03809022 17.97785043 -0.02101341 8.98892788 0 0 Z " fill="#F9F9F9" transform="translate(112,228)"/>
<path d="M0 0 C0.98484375 -0.00128906 1.9696875 -0.00257813 2.984375 -0.00390625 C4.02078125 -0.00003906 5.0571875 0.00382813 6.125 0.0078125 C7.67960937 0.00201172 7.67960937 0.00201172 9.265625 -0.00390625 C10.25046875 -0.00261719 11.2353125 -0.00132812 12.25 0 C13.16007812 0.00112793 14.07015625 0.00225586 15.0078125 0.00341797 C17.125 0.1328125 17.125 0.1328125 18.125 1.1328125 C18.16580783 3.13239614 18.16754356 5.13326504 18.125 7.1328125 C20.105 7.1328125 22.085 7.1328125 24.125 7.1328125 C24.85295155 11.33875476 25.17473814 13.93385995 24.125 18.1328125 C20.495 18.1328125 16.865 18.1328125 13.125 18.1328125 C13.125 15.8228125 13.125 13.5128125 13.125 11.1328125 C8.505 11.1328125 3.885 11.1328125 -0.875 11.1328125 C-0.545 13.7728125 -0.215 16.4128125 0.125 19.1328125 C1.82269531 19.11541016 1.82269531 19.11541016 3.5546875 19.09765625 C5.03645669 19.08827796 6.51822765 19.0791778 8 19.0703125 C8.74636719 19.06193359 9.49273437 19.05355469 10.26171875 19.04492188 C15.8984375 19.01953125 15.8984375 19.01953125 18.125 20.1328125 C18.125 22.4428125 18.125 24.7528125 18.125 27.1328125 C20.105 27.1328125 22.085 27.1328125 24.125 27.1328125 C24.125 32.4128125 24.125 37.6928125 24.125 43.1328125 C22.145 43.1328125 20.165 43.1328125 18.125 43.1328125 C18.186875 44.0815625 18.24875 45.0303125 18.3125 46.0078125 C18.2196875 47.5546875 18.2196875 47.5546875 18.125 49.1328125 C13.9416116 51.9217381 10.47706709 51.46347424 5.5625 51.4453125 C4.68658203 51.46142578 3.81066406 51.47753906 2.90820312 51.49414062 C1.65233398 51.49510742 1.65233398 51.49510742 0.37109375 51.49609375 C-0.39533447 51.49907471 -1.1617627 51.50205566 -1.95141602 51.50512695 C-2.58619873 51.38226318 -3.22098145 51.25939941 -3.875 51.1328125 C-5.875 48.1328125 -5.875 48.1328125 -5.875 44.1328125 C-8.185 43.8028125 -10.495 43.4728125 -12.875 43.1328125 C-12.90188151 41.48706684 -12.92134123 39.84119837 -12.9375 38.1953125 C-12.94910156 37.27878906 -12.96070313 36.36226563 -12.97265625 35.41796875 C-12.875 33.1328125 -12.875 33.1328125 -11.875 32.1328125 C-10.21070949 32.03457313 -8.54218069 32.00307619 -6.875 32.0078125 C-5.51375 32.00394531 -5.51375 32.00394531 -4.125 32 C-1.875 32.1328125 -1.875 32.1328125 -0.875 33.1328125 C-0.875 35.1128125 -0.875 37.0928125 -0.875 39.1328125 C3.745 39.1328125 8.365 39.1328125 13.125 39.1328125 C13.125 36.4928125 13.125 33.8528125 13.125 31.1328125 C11.83722656 31.14441406 10.54945313 31.15601563 9.22265625 31.16796875 C7.54427228 31.1773452 5.86588674 31.18644555 4.1875 31.1953125 C2.91229492 31.20788086 2.91229492 31.20788086 1.61132812 31.22070312 C0.80244141 31.22392578 -0.00644531 31.22714844 -0.83984375 31.23046875 C-1.5887085 31.23570557 -2.33757324 31.24094238 -3.10913086 31.24633789 C-4.875 31.1328125 -4.875 31.1328125 -5.875 30.1328125 C-5.91592937 27.79983817 -5.91741723 25.46576025 -5.875 23.1328125 C-6.844375 23.1534375 -7.81375 23.1740625 -8.8125 23.1953125 C-11.875 23.1328125 -11.875 23.1328125 -12.875 22.1328125 C-12.94813567 19.60231848 -12.96747527 17.09976413 -12.9375 14.5703125 C-12.93298828 13.85939453 -12.92847656 13.14847656 -12.92382812 12.41601562 C-12.91200864 10.65491237 -12.89407263 8.89385214 -12.875 7.1328125 C-10.235 7.1328125 -7.595 7.1328125 -4.875 7.1328125 C-5.060625 6.1634375 -5.24625 5.1940625 -5.4375 4.1953125 C-5.581875 3.1846875 -5.72625 2.1740625 -5.875 1.1328125 C-4.22105883 -0.52112867 -2.27184587 0.00281567 0 0 Z " fill="#ECECEB" transform="translate(223.875,223.8671875)"/>
<path d="M0 0 C3.63 0 7.26 0 11 0 C11 6.27 11 12.54 11 19 C12.65 19 14.3 19 16 19 C15.98839844 18.30132812 15.97679687 17.60265625 15.96484375 16.8828125 C15.95582031 15.97273437 15.94679688 15.06265625 15.9375 14.125 C15.92589844 13.22007812 15.91429687 12.31515625 15.90234375 11.3828125 C16 9 16 9 17 7 C19.31 7 21.62 7 24 7 C24 4.69 24 2.38 24 0 C25.81242052 -0.02687279 27.62495233 -0.04633715 29.4375 -0.0625 C30.44683594 -0.07410156 31.45617187 -0.08570313 32.49609375 -0.09765625 C35 0 35 0 36 1 C36.0979057 2.49738124 36.12974864 3.99942892 36.125 5.5 C36.12886719 6.72203125 36.12886719 6.72203125 36.1328125 7.96875 C36 10 36 10 35 11 C32.66702567 11.04092937 30.33294775 11.04241723 28 11 C28.01160156 11.85464844 28.02320313 12.70929688 28.03515625 13.58984375 C28.04417969 14.69457031 28.05320312 15.79929688 28.0625 16.9375 C28.07410156 18.03964844 28.08570313 19.14179688 28.09765625 20.27734375 C28 23 28 23 27 24 C25.00041636 24.04080783 22.99954746 24.04254356 21 24 C21 24.99 21 25.98 21 27 C22.4540625 26.9690625 22.4540625 26.9690625 23.9375 26.9375 C27 27 27 27 28 28 C28.07226502 29.85287502 28.0838122 31.70833878 28.0625 33.5625 C28.05347656 34.57441406 28.04445313 35.58632813 28.03515625 36.62890625 C28.02355469 37.41136719 28.01195312 38.19382812 28 39 C29.7015625 38.9690625 29.7015625 38.9690625 31.4375 38.9375 C35 39 35 39 36 40 C36.07205511 41.68608966 36.08386068 43.37500659 36.0625 45.0625 C36.05347656 45.98160156 36.04445313 46.90070313 36.03515625 47.84765625 C36.02355469 48.55792969 36.01195312 49.26820313 36 50 C31.66726186 50.92844389 28.33273814 50.92844389 24 50 C24 47.69 24 45.38 24 43 C22.2984375 43.0309375 22.2984375 43.0309375 20.5625 43.0625 C17 43 17 43 16 42 C15.92773498 40.14712498 15.9161878 38.29166122 15.9375 36.4375 C15.94652344 35.42558594 15.95554687 34.41367187 15.96484375 33.37109375 C15.97644531 32.58863281 15.98804688 31.80617187 16 31 C14.35 31 12.7 31 11 31 C11 37.27 11 43.54 11 50 C7.74696956 51.62651522 4.60774398 51.11453156 1 51 C0 50 0 50 -0.12025452 47.98155212 C-0.11803391 47.09552811 -0.11581329 46.20950409 -0.11352539 45.29663086 C-0.11344986 44.29566879 -0.11337433 43.29470673 -0.11329651 42.26341248 C-0.10813522 41.1748848 -0.10297394 40.08635712 -0.09765625 38.96484375 C-0.0962413 37.85645645 -0.09482635 36.74806915 -0.09336853 35.60609436 C-0.08775033 32.04986931 -0.07519475 28.49370617 -0.0625 24.9375 C-0.05748734 22.53320403 -0.05292403 20.12890708 -0.04882812 17.72460938 C-0.03777499 11.81638223 -0.02049816 5.90820163 0 0 Z " fill="#EEEEED" transform="translate(373,224)"/>
<path d="M0 0 C3.64581687 -0.02887512 7.29160463 -0.04675585 10.9375 -0.0625 C11.97841797 -0.07087891 13.01933594 -0.07925781 14.09179688 -0.08789062 C15.08115234 -0.09111328 16.07050781 -0.09433594 17.08984375 -0.09765625 C18.46450806 -0.10551147 18.46450806 -0.10551147 19.86694336 -0.11352539 C22 0 22 0 23 1 C23.04080783 2.99958364 23.04254356 5.00045254 23 7 C25.31 7 27.62 7 30 7 C30 18.88 30 30.76 30 43 C27.69 43 25.38 43 23 43 C23 45.31 23 47.62 23 50 C18.39931056 51.15937374 13.95967972 51.14882637 9.25 51.125 C8.47011719 51.12886719 7.69023437 51.13273437 6.88671875 51.13671875 C1.12670133 51.12670133 1.12670133 51.12670133 0 50 C-0.04092937 47.66702567 -0.04241723 45.33294775 0 43 C-2.31 43 -4.62 43 -7 43 C-7 31.12 -7 19.24 -7 7 C-5.02 7 -3.04 7 -1 7 C-0.67 4.69 -0.34 2.38 0 0 Z M4 11 C3.97309695 15.10421014 3.95320792 19.20824497 3.9375 23.3125 C3.92912109 24.47974609 3.92074219 25.64699219 3.91210938 26.84960938 C3.90888672 27.96787109 3.90566406 29.08613281 3.90234375 30.23828125 C3.89710693 31.26993408 3.89187012 32.30158691 3.88647461 33.36450195 C3.88365 36.10946274 3.88365 36.10946274 5 39 C9.62 39 14.24 39 19 39 C19 29.76 19 20.52 19 11 C14.05 11 9.1 11 4 11 Z " fill="#F1F1F1" transform="translate(298,224)"/>
<path d="M0 0 C1.39120471 0.00015906 2.78241534 0.00585033 4.17358398 0.01586914 C4.90463852 0.01728409 5.63569305 0.01869904 6.38890076 0.02015686 C8.73253406 0.02577131 11.07607313 0.03832617 13.41967773 0.05102539 C15.00496282 0.05603853 16.59024939 0.06060176 18.17553711 0.06469727 C22.06945383 0.07574542 25.96329979 0.09301967 29.85717773 0.11352539 C31.52131428 3.44179849 30.6758518 7.11086512 30.41967773 10.73852539 C30.3674707 11.54032227 30.31526367 12.34211914 30.26147461 13.16821289 C30.13169402 15.15031642 29.99508039 17.13197038 29.85717773 19.11352539 C26.88717773 19.60852539 26.88717773 19.60852539 23.85717773 20.11352539 C23.64061523 21.81508789 23.64061523 21.81508789 23.41967773 23.55102539 C22.85717773 27.11352539 22.85717773 27.11352539 21.85717773 28.11352539 C19.5242034 28.15445476 17.19012549 28.15594262 14.85717773 28.11352539 C15.06342773 29.06227539 15.26967773 30.01102539 15.48217773 30.98852539 C15.60592773 32.01977539 15.72967773 33.05102539 15.85717773 34.11352539 C13.85717773 36.11352539 13.85717773 36.11352539 10.73217773 36.23852539 C9.78342773 36.19727539 8.83467773 36.15602539 7.85717773 36.11352539 C7.85717773 37.10352539 7.85717773 38.09352539 7.85717773 39.11352539 C15.11717773 39.11352539 22.37717773 39.11352539 29.85717773 39.11352539 C30.97163271 41.34243534 31.02198059 42.64407645 31.04467773 45.11352539 C31.05885742 45.81477539 31.07303711 46.51602539 31.08764648 47.23852539 C30.85717773 49.11352539 30.85717773 49.11352539 28.85717773 51.11352539 C26.43150654 51.30066526 24.12220106 51.36937817 21.69702148 51.34399414 C20.99194962 51.34353592 20.28687775 51.3430777 19.56044006 51.34260559 C18.07006141 51.33958402 16.57968589 51.33170049 15.08935547 51.31933594 C12.8002614 51.30106995 10.51157146 51.2988263 8.22241211 51.29907227 C6.77644505 51.29415745 5.33048074 51.28832929 3.88452148 51.28149414 C2.85173317 51.27982491 2.85173317 51.27982491 1.79808044 51.27812195 C-3.02676727 51.22958038 -3.02676727 51.22958038 -4.14282227 50.11352539 C-4.22914101 48.77085126 -4.249887 47.42378217 -4.24047852 46.07836914 C-4.23725586 45.26948242 -4.2340332 44.4605957 -4.23071289 43.62719727 C-4.22233398 42.77706055 -4.21395508 41.92692383 -4.20532227 41.05102539 C-4.20081055 40.19702148 -4.19629883 39.34301758 -4.19165039 38.46313477 C-4.179826 36.34656876 -4.16188995 34.23003854 -4.14282227 32.11352539 C-1.43402891 30.75912871 0.86651041 31.04851088 3.85717773 31.11352539 C3.85717773 28.80352539 3.85717773 26.49352539 3.85717773 24.11352539 C6.16717773 24.11352539 8.47717773 24.11352539 10.85717773 24.11352539 C10.85717773 21.47352539 10.85717773 18.83352539 10.85717773 16.11352539 C14.32217773 15.61852539 14.32217773 15.61852539 17.85717773 15.11352539 C17.85717773 13.79352539 17.85717773 12.47352539 17.85717773 11.11352539 C17.22626221 11.11876221 16.59534668 11.12399902 15.9453125 11.12939453 C13.10344426 11.15010365 10.26159186 11.16316605 7.41967773 11.17602539 C5.92984375 11.18859375 5.92984375 11.18859375 4.40991211 11.20141602 C3.46567383 11.20463867 2.52143555 11.20786133 1.54858398 11.21118164 C0.67403564 11.21641846 -0.2005127 11.22165527 -1.1015625 11.22705078 C-3.14282227 11.11352539 -3.14282227 11.11352539 -4.14282227 10.11352539 C-4.24072796 8.61614415 -4.27257091 7.11409647 -4.26782227 5.61352539 C-4.27040039 4.79883789 -4.27297852 3.98415039 -4.27563477 3.14477539 C-4.0554071 -0.22341249 -3.4595175 0.12496509 0 0 Z " fill="#E4E4E4" transform="translate(416.142822265625,223.886474609375)"/>
<path d="M0 0 C1.875 1.3125 1.875 1.3125 2.25 3.3125 C2.45625 3.9725 2.6625 4.6325 2.875 5.3125 C5.87115946 6.6170656 5.87115946 6.6170656 8.875 7.3125 C8.875 7.9725 8.875 8.6325 8.875 9.3125 C9.865 9.6425 10.855 9.9725 11.875 10.3125 C11.875 12.9525 11.875 15.5925 11.875 18.3125 C8.905 18.3125 5.935 18.3125 2.875 18.3125 C2.875 19.9625 2.875 21.6125 2.875 23.3125 C3.865 23.3125 4.855 23.3125 5.875 23.3125 C7.25368281 24.94185241 8.58774093 26.60999607 9.875 28.3125 C10.535 28.6425 11.195 28.9725 11.875 29.3125 C11.875 34.5925 11.875 39.8725 11.875 45.3125 C10.39 45.8075 10.39 45.8075 8.875 46.3125 C8.875 46.9725 8.875 47.6325 8.875 48.3125 C7 50.4375 7 50.4375 4.875 52.3125 C4.215 52.3125 3.555 52.3125 2.875 52.3125 C2.730625 52.951875 2.58625 53.59125 2.4375 54.25 C1.875 56.3125 1.875 56.3125 0.875 57.3125 C-0.79117115 57.35313832 -2.45888095 57.355221 -4.125 57.3125 C-4.455 55.6625 -4.785 54.0125 -5.125 52.3125 C-6.775 51.9825 -8.425 51.6525 -10.125 51.3125 C-10.62 49.8275 -10.62 49.8275 -11.125 48.3125 C-13.62947516 47.09380071 -13.62947516 47.09380071 -16.125 46.3125 C-16.125 43.6725 -16.125 41.0325 -16.125 38.3125 C-12.495 38.3125 -8.865 38.3125 -5.125 38.3125 C-5.125 36.9925 -5.125 35.6725 -5.125 34.3125 C-6.775 34.3125 -8.425 34.3125 -10.125 34.3125 C-10.62 32.8275 -10.62 32.8275 -11.125 31.3125 C-12.115 31.3125 -13.105 31.3125 -14.125 31.3125 C-15.3253299 24.86072678 -17.10706452 15.27662904 -14.125 9.3125 C-13.135 9.3125 -12.145 9.3125 -11.125 9.3125 C-10.795 8.3225 -10.465 7.3325 -10.125 6.3125 C-8.475 5.9825 -6.825 5.6525 -5.125 5.3125 C-5.125 3.6625 -5.125 2.0125 -5.125 0.3125 C-2.125 -0.6875 -2.125 -0.6875 0 0 Z " fill="#EEEEEE" transform="translate(169.125,203.6875)"/>
<path d="M0 0 C3.64581687 -0.02887512 7.29160463 -0.04675585 10.9375 -0.0625 C11.97841797 -0.07087891 13.01933594 -0.07925781 14.09179688 -0.08789062 C15.08115234 -0.09111328 16.07050781 -0.09433594 17.08984375 -0.09765625 C18.46450806 -0.10551147 18.46450806 -0.10551147 19.86694336 -0.11352539 C22 0 22 0 23 1 C23.04080783 2.99958364 23.04254356 5.00045254 23 7 C25.31 7 27.62 7 30 7 C30.02688151 8.64574566 30.04634123 10.29161413 30.0625 11.9375 C30.07410156 12.85402344 30.08570313 13.77054688 30.09765625 14.71484375 C30 17 30 17 29 18 C27.31391034 18.07205511 25.62499341 18.08386068 23.9375 18.0625 C23.01839844 18.05347656 22.09929687 18.04445312 21.15234375 18.03515625 C20.44207031 18.02355469 19.73179687 18.01195312 19 18 C18.67 16.02 18.34 14.04 18 12 C13.71 12 9.42 12 5 12 C4.67 20.91 4.34 29.82 4 39 C8.95 39 13.9 39 19 39 C19 36.69 19 34.38 19 32 C20.64574566 31.97311849 22.29161413 31.95365877 23.9375 31.9375 C24.85402344 31.92589844 25.77054687 31.91429687 26.71484375 31.90234375 C29 32 29 32 30 33 C30.07205511 34.68608966 30.08386068 36.37500659 30.0625 38.0625 C30.05347656 38.98160156 30.04445313 39.90070313 30.03515625 40.84765625 C30.02355469 41.55792969 30.01195312 42.26820313 30 43 C27.69 43 25.38 43 23 43 C23 45.31 23 47.62 23 50 C18.39931056 51.15937374 13.95967972 51.14882637 9.25 51.125 C8.47011719 51.12886719 7.69023437 51.13273437 6.88671875 51.13671875 C1.12670133 51.12670133 1.12670133 51.12670133 0 50 C-0.04092937 47.66702567 -0.04241723 45.33294775 0 43 C-2.31 43 -4.62 43 -7 43 C-7 31.12 -7 19.24 -7 7 C-5.02 6.67 -3.04 6.34 -1 6 C-0.67 4.02 -0.34 2.04 0 0 Z " fill="#EDEDED" transform="translate(339,224)"/>
<path d="M0 0 C3.12492251 -0.05791844 6.24970766 -0.09356746 9.375 -0.125 C10.26445313 -0.14175781 11.15390625 -0.15851563 12.0703125 -0.17578125 C12.92109375 -0.18222656 13.771875 -0.18867188 14.6484375 -0.1953125 C15.82672119 -0.21102295 15.82672119 -0.21102295 17.02880859 -0.22705078 C19 0 19 0 21 2 C21.25396729 3.85949707 21.25396729 3.85949707 21.25878906 6.14257812 C21.26509338 6.99686401 21.27139771 7.8511499 21.27789307 8.73132324 C21.2738446 9.65529907 21.26979614 10.5792749 21.265625 11.53125 C21.26753845 12.47810669 21.2694519 13.42496338 21.27142334 14.4005127 C21.27278573 16.40454372 21.26908556 18.40858354 21.26074219 20.41259766 C21.25004347 23.48750553 21.26063572 26.56182914 21.2734375 29.63671875 C21.27211591 31.58073046 21.26955354 33.52474181 21.265625 35.46875 C21.26967346 36.39272583 21.27372192 37.31670166 21.27789307 38.26867676 C21.27158875 39.12296265 21.26528442 39.97724854 21.25878906 40.85742188 C21.25640228 41.987547 21.25640228 41.987547 21.25396729 43.14050293 C21 45 21 45 19 47 C17.12060547 47.22705078 17.12060547 47.22705078 14.8671875 47.1953125 C14.06152344 47.18886719 13.25585938 47.18242187 12.42578125 47.17578125 C11.16314453 47.15064453 11.16314453 47.15064453 9.875 47.125 C8.60076172 47.11146484 8.60076172 47.11146484 7.30078125 47.09765625 C5.20040116 47.07405647 3.10016556 47.03818483 1 47 C-1.40700808 42.29390271 -1.27440641 37.98597703 -1.23046875 32.83203125 C-1.22978142 31.51799568 -1.22978142 31.51799568 -1.2290802 30.17741394 C-1.22606769 28.3325362 -1.21821147 26.48766078 -1.20581055 24.64282227 C-1.18749625 21.81192068 -1.18530141 18.98134541 -1.18554688 16.15039062 C-1.18063344 14.35676799 -1.17480589 12.56314758 -1.16796875 10.76953125 C-1.16685593 9.92058792 -1.1657431 9.07164459 -1.16459656 8.19697571 C-1.1160911 2.23218219 -1.1160911 2.23218219 0 0 Z " fill="#F1F1F1" transform="translate(82,258)"/>
<path d="M0 0 C0.80115234 -0.00128906 1.60230469 -0.00257813 2.42773438 -0.00390625 C3.26498047 -0.00003906 4.10222656 0.00382812 4.96484375 0.0078125 C5.80595703 0.00394531 6.64707031 0.00007813 7.51367188 -0.00390625 C13.77571693 0.00618568 13.77571693 0.00618568 14.90234375 1.1328125 C15.06129466 3.17101294 15.15375232 5.21445699 15.21875 7.2578125 C15.26064453 8.52238281 15.30253906 9.78695313 15.34570312 11.08984375 C15.36528076 11.7545166 15.3848584 12.41918945 15.4050293 13.10400391 C15.46378281 15.09682713 15.52967746 17.08943571 15.59570312 19.08203125 C15.71301934 22.76538794 15.8107652 26.4487382 15.90234375 30.1328125 C15.95044189 31.5559375 15.95044189 31.5559375 15.99951172 33.0078125 C16.04572131 35.04921313 15.98663098 37.0926293 15.90234375 39.1328125 C13.90234375 41.1328125 13.90234375 41.1328125 11.94702148 41.37573242 C11.16786377 41.37162354 10.38870605 41.36751465 9.5859375 41.36328125 C8.73966797 41.36134766 7.89339844 41.35941406 7.02148438 41.35742188 C5.69407227 41.33905273 5.69407227 41.33905273 4.33984375 41.3203125 C3.45103516 41.31966797 2.56222656 41.31902344 1.64648438 41.31835938 C-4.95744528 41.27302347 -4.95744528 41.27302347 -6.09765625 40.1328125 C-6.18630833 37.2484743 -6.21286921 34.38819092 -6.1953125 31.50390625 C-6.19389755 30.63967545 -6.1924826 29.77544464 -6.19102478 28.88502502 C-6.18540864 26.11341958 -6.17285344 23.3418937 -6.16015625 20.5703125 C-6.15514333 18.6959647 -6.15058006 16.82161565 -6.14648438 14.94726562 C-6.13543397 10.34241706 -6.11815855 5.73762829 -6.09765625 1.1328125 C-3.81874592 -0.00664266 -2.52983521 0.00387036 0 0 Z " fill="#F5F5F5" transform="translate(148.09765625,263.8671875)"/>
<path d="M0 0 C0.73283203 0.00064453 1.46566406 0.00128906 2.22070312 0.00195312 C7.65625 0.046875 7.65625 0.046875 9.9375 1.1875 C10.12959289 6.56230473 10.30834171 11.93732255 10.47460938 17.31298828 C10.53309255 19.14253709 10.59525332 20.97197212 10.66113281 22.80126953 C10.75506847 25.42719815 10.83587127 28.05324886 10.9140625 30.6796875 C10.94625885 31.50056854 10.9784552 32.32144958 11.0116272 33.16720581 C11.06483115 35.1734173 11.01051195 37.18191169 10.9375 39.1875 C8.57181778 41.55318222 8.08517774 41.44321704 4.875 41.453125 C3.68003906 41.45699219 3.68003906 41.45699219 2.4609375 41.4609375 C1.62820312 41.45320313 0.79546875 41.44546875 -0.0625 41.4375 C-1.31160156 41.44910156 -1.31160156 41.44910156 -2.5859375 41.4609375 C-3.38257813 41.45835937 -4.17921875 41.45578125 -5 41.453125 C-5.73089844 41.45086914 -6.46179688 41.44861328 -7.21484375 41.44628906 C-9.0625 41.1875 -9.0625 41.1875 -11.0625 39.1875 C-11.27455956 36.41432641 -11.36647141 33.74351963 -11.36328125 30.96875 C-11.36756638 30.15506958 -11.3718515 29.34138916 -11.37626648 28.50305176 C-11.38201336 26.78150362 -11.3825074 25.05993119 -11.37817383 23.33837891 C-11.37501236 20.6978232 -11.39847264 18.05838593 -11.42382812 15.41796875 C-11.42610086 13.74739725 -11.42680473 12.07682273 -11.42578125 10.40625 C-11.434991 9.61351685 -11.44420074 8.82078369 -11.45368958 8.00402832 C-11.43481445 5.77929688 -11.43481445 5.77929688 -11.0625 2.1875 C-7.30490815 -0.31756123 -4.34222423 -0.0729463 0 0 Z " fill="#EEEEEE" transform="translate(183.0625,263.8125)"/>
<path d="M0 0 C1.47583955 0.0001591 2.95168467 0.00585225 4.42749023 0.01586914 C5.20293686 0.01728409 5.97838348 0.01869904 6.77732849 0.02015686 C9.26361893 0.02577194 11.74982059 0.03832693 14.23608398 0.05102539 C15.91772331 0.05603845 17.59936405 0.06060169 19.28100586 0.06469727 C23.41189965 0.07574626 27.54272674 0.09302094 31.67358398 0.11352539 C31.67358398 3.74352539 31.67358398 7.37352539 31.67358398 11.11352539 C27.71358398 11.11352539 23.75358398 11.11352539 19.67358398 11.11352539 C19.67358398 23.98352539 19.67358398 36.85352539 19.67358398 50.11352539 C16.04358398 50.11352539 12.41358398 50.11352539 8.67358398 50.11352539 C8.67358398 37.24352539 8.67358398 24.37352539 8.67358398 11.11352539 C4.71358398 11.11352539 0.75358398 11.11352539 -3.32641602 11.11352539 C-4.32641602 10.11352539 -4.32641602 10.11352539 -4.45922852 8.08227539 C-4.45665039 7.26758789 -4.45407227 6.45290039 -4.45141602 5.61352539 C-4.45399414 4.79883789 -4.45657227 3.98415039 -4.45922852 3.14477539 C-4.23337481 -0.30945776 -3.57113711 0.12187734 0 0 Z " fill="#F8F8F8" transform="translate(255.326416015625,223.886474609375)"/>
<path d="M0 0 C6.93 0 13.86 0 21 0 C21.02682299 4.31254083 21.04675244 8.62491707 21.0625 12.9375 C21.07087891 14.16919922 21.07925781 15.40089844 21.08789062 16.66992188 C21.09272461 18.4246582 21.09272461 18.4246582 21.09765625 20.21484375 C21.10551147 21.84087524 21.10551147 21.84087524 21.11352539 23.49975586 C21 26 21 26 20 27 C18.59651265 27.09860131 17.18819523 27.13078937 15.78125 27.1328125 C14.50701172 27.13474609 14.50701172 27.13474609 13.20703125 27.13671875 C11.86705078 27.13091797 11.86705078 27.13091797 10.5 27.125 C9.60667969 27.12886719 8.71335937 27.13273437 7.79296875 27.13671875 C6.94347656 27.13542969 6.09398437 27.13414062 5.21875 27.1328125 C4.43435547 27.13168457 3.64996094 27.13055664 2.84179688 27.12939453 C1 27 1 27 0 26 C-0.08748207 24.07332493 -0.10697334 22.14348139 -0.09765625 20.21484375 C-0.09443359 19.04501953 -0.09121094 17.87519531 -0.08789062 16.66992188 C-0.07951172 15.43822266 -0.07113281 14.20652344 -0.0625 12.9375 C-0.05798828 11.70193359 -0.05347656 10.46636719 -0.04882812 9.19335938 C-0.03699618 6.12888587 -0.01906008 3.06443707 0 0 Z " fill="#F4F4F4" transform="translate(51,278)"/>
<path d="M0 0 C0.33 0 0.66 0 1 0 C1 24.75 1 49.5 1 75 C0.67 75 0.34 75 0 75 C-0.33 65.76 -0.66 56.52 -1 47 C-1.33 47 -1.66 47 -2 47 C-2 35.12 -2 23.24 -2 11 C-1.67 11 -1.34 11 -1 11 C-0.67 7.37 -0.34 3.74 0 0 Z " fill="#D6D6D6" transform="translate(132,229)"/>
<path d="M0 0 C0.33 0 0.66 0 1 0 C1 9.24 1 18.48 1 28 C0.34 26.68 -0.32 25.36 -1 24 C-1.33 23.67 -1.66 23.34 -2 23 C-2.07271741 20.64686445 -2.08370868 18.29166332 -2.0625 15.9375 C-2.05347656 14.64714844 -2.04445312 13.35679687 -2.03515625 12.02734375 C-2.02355469 11.02832031 -2.01195312 10.02929688 -2 9 C-1.34 9 -0.68 9 0 9 C0 6.03 0 3.06 0 0 Z " fill="#CACACA" transform="translate(132,187)"/>
<path d="M0 0 C-0.33 0.99 -0.66 1.98 -1 3 C-2.32 3 -3.64 3 -5 3 C-5.33 15.21 -5.66 27.42 -6 40 C-6.33 40 -6.66 40 -7 40 C-7 27.13 -7 14.26 -7 1 C-4.53721199 -0.231394 -2.7204945 -0.07159196 0 0 Z " fill="#717171" transform="translate(149,264)"/>
<path d="M0 0 C0.70189453 0.05671875 1.40378906 0.1134375 2.12695312 0.171875 C3.85630285 0.31304641 5.58454088 0.46771959 7.3125 0.625 C7.6425 1.615 7.9725 2.605 8.3125 3.625 C2.3725 3.625 -3.5675 3.625 -9.6875 3.625 C-10.0175 2.965 -10.3475 2.305 -10.6875 1.625 C-6.92241505 -0.88505664 -4.29288391 -0.4008295 0 0 Z " fill="#D1D1D1" transform="translate(92.6875,301.375)"/>
<path d="M0 0 C0.66 0 1.32 0 2 0 C1.67 1.65 1.34 3.3 1 5 C-4.94 5 -10.88 5 -17 5 C-17 4.67 -17 4.34 -17 4 C-14.03 4 -11.06 4 -8 4 C-8 3.34 -8 2.68 -8 2 C-6.2984375 1.7834375 -6.2984375 1.7834375 -4.5625 1.5625 C-1.19222799 1.38828522 -1.19222799 1.38828522 0 0 Z " fill="#C7C9C8" transform="translate(70,300)"/>
<path d="M0 0 C0.33 0 0.66 0 1 0 C1 5.94 1 11.88 1 18 C0.34 18 -0.32 18 -1 18 C-1.22245975 15.75135275 -1.42746557 13.50097377 -1.625 11.25 C-1.74101563 9.99703125 -1.85703125 8.7440625 -1.9765625 7.453125 C-1.99888599 4.16413097 -1.77961002 2.68979224 0 0 Z " fill="#EDEEEE" transform="translate(71,282)"/>
<path d="M0 0 C0.33 0 0.66 0 1 0 C1 3.3 1 6.6 1 10 C-0.65 10 -2.3 10 -4 10 C-3.67 9.34 -3.34 8.68 -3 8 C-2.34 8 -1.68 8 -1 8 C-1.020625 6.865625 -1.04125 5.73125 -1.0625 4.5625 C-1 1 -1 1 0 0 Z " fill="#E0E0E1" transform="translate(368,257)"/>
<path d="M0 0 C0.99 0.33 1.98 0.66 3 1 C1.125 6.875 1.125 6.875 0 8 C-2.33297433 8.04092937 -4.66705225 8.04241723 -7 8 C-7 7.67 -7 7.34 -7 7 C-5.02 7 -3.04 7 -1 7 C-0.67 4.69 -0.34 2.38 0 0 Z " fill="#B3B3B3" transform="translate(298,224)"/>
<path d="M0 0 C1.32 0 2.64 0 4 0 C4 2.97 4 5.94 4 9 C3.34 9 2.68 9 2 9 C1.855625 7.88625 1.71125 6.7725 1.5625 5.625 C1.21627965 2.17857953 1.21627965 2.17857953 0 0 Z " fill="#F9F9F9" transform="translate(128,187)"/>
<path d="M0 0 C0.99 0.495 0.99 0.495 2 1 C2.34342449 2.33076989 2.67619874 3.66431979 3 5 C3.66 5.66 4.32 6.32 5 7 C3.35 7.33 1.7 7.66 0 8 C0 5.36 0 2.72 0 0 Z " fill="#F3F3F3" transform="translate(237,234)"/>
</g>
</svg>
